<?xml version="1.0" standalone="no"?>
<!DOCTYPE svg PUBLIC "-//W3C//DTD SVG 20010904//EN"
 "http://www.w3.org/TR/2001/REC-SVG-20010904/DTD/svg10.dtd">
<svg version="1.0" xmlns="http://www.w3.org/2000/svg"
 width="1536.000000pt" height="1790.000000pt" viewBox="0 0 1536.000000 1790.000000"
 preserveAspectRatio="xMidYMid meet">

<g transform="translate(0.000000,1790.000000) scale(0.100000,-0.100000)"
fill="#000000" stroke="none">
<path d="M14296 17744 c-142 -31 -266 -97 -372 -197 -167 -155 -246 -341 -246
-572 0 -170 38 -300 134 -457 l23 -38 -2250 -2250 -2250 -2250 -765 305 c-421
168 -1513 602 -2426 966 l-1661 662 8 36 c14 58 10 270 -6 345 -32 151 -147
331 -278 435 -73 59 -196 122 -287 147 -100 28 -310 26 -413 -4 -264 -76 -463
-271 -547 -537 -28 -88 -38 -263 -21 -360 52 -297 284 -548 580 -627 85 -22
283 -28 358 -10 l42 10 30 -72 c16 -39 415 -1025 886 -2191 471 -1166 897
-2219 946 -2340 l89 -220 -657 -660 c-361 -363 -1370 -1372 -2241 -2241
l-1585 -1582 -55 35 c-128 82 -270 123 -427 123 -228 0 -394 -70 -561 -235
-81 -80 -98 -103 -142 -195 -66 -134 -82 -204 -82 -356 0 -150 21 -238 87
-367 38 -75 65 -110 143 -188 85 -86 107 -102 200 -147 148 -71 218 -86 382
-79 149 5 226 24 339 84 189 98 347 298 395 498 9 39 18 76 20 82 3 10 568 13
2787 13 l2784 0 13 -58 c55 -248 219 -450 454 -557 106 -49 186 -65 318 -65
140 0 238 22 354 81 223 111 370 311 428 582 l6 27 2422 -2 2421 -3 14 -60
c19 -84 69 -206 113 -273 50 -78 193 -211 271 -255 35 -19 98 -48 139 -63 72
-27 83 -28 250 -29 165 0 179 2 248 27 115 42 218 106 303 188 170 166 248
365 236 604 -17 352 -258 643 -603 728 l-84 21 0 2422 0 2421 68 16 c386 92
641 426 619 813 -7 125 -26 196 -82 310 -111 224 -309 371 -577 429 l-28 6 0
2783 0 2783 68 16 c208 48 374 162 486 331 102 155 141 295 133 472 -7 133
-24 201 -85 325 -40 83 -59 108 -146 195 -110 110 -177 152 -321 201 -102 34
-289 43 -399 18z m314 -199 c103 -27 180 -73 266 -159 122 -122 174 -246 174
-414 0 -159 -57 -299 -170 -413 -194 -196 -489 -234 -723 -92 -266 161 -363
503 -220 776 72 136 190 237 337 289 68 23 97 28 181 28 56 0 124 -7 155 -15z
m-600 -1225 c56 -40 195 -100 271 -117 l79 -18 0 -2782 0 -2783 -27 -5 c-240
-49 -420 -170 -553 -374 l-15 -23 -870 347 c-479 190 -1417 564 -2085 830
-668 266 -1228 489 -1244 495 l-30 11 2220 2220 c1220 1220 2221 2219 2222
2219 2 0 16 -9 32 -20z m-10152 -1635 c169 -40 326 -171 398 -331 27 -61 54
-185 54 -246 0 -67 -27 -175 -60 -246 -58 -125 -152 -217 -285 -282 -223 -109
-481 -64 -660 114 -118 118 -175 253 -175 416 0 170 52 293 174 416 86 86 161
131 266 158 72 19 209 20 288 1z m1352 -1280 c421 -169 1042 -419 1380 -555
338 -136 1055 -424 1593 -640 l979 -393 -748 -748 -747 -748 -1659 1651 c-912
908 -1658 1653 -1658 1656 0 3 12 25 28 49 20 33 32 43 47 40 11 -2 364 -143
785 -312z m318 -1237 c725 -721 1470 -1463 1657 -1650 l340 -338 -750 -750
c-515 -515 -752 -745 -757 -736 -12 22 -1899 4690 -1904 4711 -3 15 6 27 38
47 24 15 47 28 51 28 5 0 601 -590 1325 -1312z m5844 -1239 c1096 -441 2065
-830 2154 -865 l161 -65 -8 -47 c-46 -280 84 -592 316 -758 86 -61 196 -111
287 -131 l78 -16 0 -2422 0 -2421 -77 -18 c-86 -20 -198 -68 -265 -114 l-44
-30 -3081 3066 -3081 3067 776 778 c428 427 780 777 784 777 4 0 904 -360
2000 -801z m3238 -524 c103 -27 180 -73 266 -159 120 -120 174 -247 174 -411
0 -163 -57 -302 -170 -416 -213 -215 -541 -236 -779 -51 -373 289 -275 868
173 1024 68 23 97 28 181 28 56 0 124 -7 155 -15z m-3857 -3443 l3076 -3062
-44 -70 c-49 -81 -80 -158 -99 -250 l-13 -65 -2420 -3 -2420 -2 -21 86 c-82
332 -351 569 -684 603 -81 8 -222 1 -267 -14 -11 -3 -21 0 -24 7 -84 205
-1727 4272 -1727 4276 0 10 1554 1562 1561 1560 4 -2 1391 -1381 3082 -3066z
m-4726 1171 c40 -98 144 -356 232 -573 766 -1892 1391 -3442 1391 -3449 0 -4
-26 -25 -57 -46 -158 -105 -297 -318 -328 -502 l-7 -43 -2784 0 -2784 0 -6 28
c-26 120 -69 226 -125 308 l-28 41 2202 2205 c1211 1212 2207 2205 2212 2206
6 1 43 -78 82 -175z m-4966 -4149 c136 -40 258 -129 332 -242 70 -105 89 -168
95 -303 5 -134 -7 -191 -66 -304 -44 -84 -144 -189 -222 -232 -240 -135 -516
-98 -711 96 -87 86 -130 162 -160 279 -70 276 80 569 350 683 38 16 93 33 122
38 69 13 191 5 260 -15z m7139 -1 c195 -53 364 -224 415 -419 20 -76 19 -220
-1 -298 -9 -33 -31 -90 -50 -126 -160 -306 -551 -409 -840 -221 -162 104 -274
307 -274 496 0 234 166 472 387 555 101 38 254 43 363 13z m6430 -3 c176 -52
328 -198 391 -376 27 -75 37 -233 19 -312 -48 -217 -227 -402 -440 -453 -78
-18 -222 -16 -294 5 -108 32 -176 73 -262 160 -92 93 -136 170 -159 281 -41
195 8 379 139 522 104 113 224 177 360 191 95 10 168 5 246 -18z"/>
<path d="M10425 1900 c-104 -15 -187 -40 -280 -85 -302 -146 -461 -447 -443
-837 23 -473 334 -789 805 -815 227 -12 452 44 600 149 l41 30 -13 37 c-16 44
-115 274 -120 279 -2 2 -16 -5 -32 -16 -86 -61 -233 -115 -343 -126 -237 -25
-411 99 -464 331 -20 90 -21 283 -2 374 25 116 93 221 177 275 152 96 444 64
632 -68 16 -11 30 -18 33 -15 3 3 34 72 69 154 l63 148 -26 28 c-39 41 -174
104 -288 133 -110 28 -304 39 -409 24z"/>
<path d="M14164 1900 c-171 -23 -328 -100 -428 -211 -170 -189 -173 -488 -6
-642 96 -89 214 -138 503 -207 254 -60 320 -100 319 -192 -1 -32 -8 -48 -33
-74 -50 -51 -113 -68 -254 -69 -179 0 -307 31 -477 116 -42 21 -79 35 -81 31
-25 -41 -136 -307 -130 -313 24 -23 151 -82 230 -108 163 -53 248 -65 458 -65
173 0 199 3 287 27 291 78 438 247 438 504 0 179 -81 308 -246 391 -78 40
-149 63 -357 117 -118 31 -231 67 -260 82 -125 67 -106 189 38 255 41 18 68
22 150 22 139 0 230 -23 372 -94 64 -32 118 -58 119 -57 1 1 31 71 67 154 l65
153 -31 27 c-46 39 -163 90 -269 118 -160 42 -325 54 -474 35z"/>
<path d="M430 1035 l0 -855 225 0 225 0 0 855 0 855 -225 0 -225 0 0 -855z"/>
<path d="M1308 1881 l-37 -6 383 -840 382 -840 179 -8 c98 -4 182 -4 185 0 6
7 750 1637 767 1681 4 10 -41 12 -222 10 l-227 -3 -242 -558 c-134 -307 -247
-559 -250 -560 -4 -1 -116 252 -250 563 l-242 565 -194 1 c-107 1 -212 -1
-232 -5z"/>
<path d="M3320 1886 c0 -3 160 -239 355 -526 l355 -521 0 -330 0 -329 230 0
230 0 0 331 0 330 346 507 c191 279 351 513 357 520 8 10 -41 12 -249 10
l-258 -3 -210 -326 c-116 -179 -215 -326 -221 -326 -5 0 -105 148 -220 331
l-210 331 -253 3 c-138 1 -252 0 -252 -2z"/>
<path d="M5480 1035 l0 -855 225 0 225 0 0 345 0 345 345 0 345 0 0 -345 0
-345 220 0 220 0 0 855 0 855 -220 0 -220 0 -2 -332 -3 -333 -342 -3 -343 -2
0 335 0 335 -225 0 -225 0 0 -855z"/>
<path d="M7847 1039 c-219 -468 -396 -853 -394 -855 2 -3 104 -1 226 3 l223 8
71 167 71 168 382 0 382 0 74 -172 74 -173 211 0 c116 0 214 3 218 6 5 6 -327
724 -714 1544 l-71 150 -177 3 -178 2 -398 -851z m702 91 l110 -255 -226 -3
c-124 -1 -228 0 -231 3 -5 4 57 153 201 484 10 24 23 39 27 35 5 -5 58 -124
119 -264z"/>
<path d="M11670 1035 l0 -855 225 0 225 0 0 387 0 386 23 -21 c12 -11 166
-185 342 -386 l320 -365 220 0 c121 0 239 4 262 7 l42 7 -375 430 c-206 237
-377 435 -380 442 -8 17 1 28 376 429 184 198 341 367 349 377 13 16 -2 17
-247 17 l-261 0 -283 -313 c-156 -172 -304 -336 -330 -365 -25 -29 -49 -52
-52 -52 -3 0 -6 164 -6 365 l0 365 -225 0 -225 0 0 -855z"/>
</g>
</svg>
